<?xml version="1.0" encoding="UTF-8"?>
<svg version="1.1" xmlns="http://www.w3.org/2000/svg" width="512" height="512">
<path d="M0 0 C1.12277344 0.66257812 2.24554688 1.32515625 3.40234375 2.0078125 C4.33796143 2.59224121 4.33796143 2.59224121 5.29248047 3.18847656 C9.71436936 5.73239785 13.02693065 6.57374859 18.09375 5.70654297 C22.4459157 4.38929485 26.08340035 1.98588689 29.90234375 -0.4296875 C66.77218214 -22.50073103 112.38876056 -31.0503968 154.96484375 -31.3671875 C156.61359497 -31.38797363 156.61359497 -31.38797363 158.2956543 -31.40917969 C172.72437378 -31.3248077 183.67028474 -26.19516784 194.109375 -16.37109375 C206.80716959 -3.19740226 206.99033138 11.94505356 206.91992188 29.21704102 C206.92534905 31.4570969 206.93247504 33.69714921 206.94116211 35.93719482 C206.95932632 41.99290461 206.95235665 48.0483404 206.93964577 54.10405469 C206.92948357 60.45568379 206.93892026 66.80729022 206.94519043 73.15892029 C206.95292169 84.50406605 206.9405313 95.84907334 206.92015308 107.19419139 C206.9022802 117.46212323 206.90539304 127.72987415 206.92382812 137.99780273 C206.94527622 149.94934187 206.95318028 161.9007713 206.94137907 173.85233635 C206.93515684 180.16883462 206.93427373 186.4852085 206.94752502 192.80169868 C206.95911462 198.74033078 206.95100068 204.67862253 206.927948 210.61721802 C206.92267779 212.79116693 206.92414559 214.96514468 206.93299866 217.13908195 C207.0105781 238.13120429 207.0105781 238.13120429 202.40234375 247.0078125 C201.68111328 248.50054687 201.68111328 248.50054687 200.9453125 250.0234375 C194.10088185 261.30589954 185.02801014 269.00931897 172.1015625 272.625 C164.88468308 274.32269611 157.66098562 274.7663693 150.28500366 275.22912598 C110.59007979 277.78953118 74.26681505 286.88882417 39.5703125 306.66650391 C31.17106921 311.39535776 24.1773681 313.36197927 14.52734375 313.3203125 C13.78871094 313.33642578 13.05007812 313.35253906 12.2890625 313.36914062 C1.51506022 313.37847685 -6.85399763 309.05962577 -16.03515625 303.8203125 C-49.76495806 285.14993601 -85.56401505 277.4824542 -123.80932617 275.08300781 C-139.71915226 274.04650792 -154.75897624 271.30709432 -166.078125 258.94140625 C-169.02403098 255.19275983 -171.52352353 251.30065556 -173.59765625 247.0078125 C-173.92717254 246.37235913 -174.25668882 245.73690577 -174.59619045 245.08219624 C-179.0027037 235.16056352 -178.16646055 224.58841848 -178.13110352 213.9597168 C-178.13816874 211.72467481 -178.14691628 209.4896376 -178.1572113 207.25460815 C-178.17964934 201.20691285 -178.17677818 195.15947995 -178.16788983 189.11175895 C-178.16276673 184.05238038 -178.1700834 178.99305056 -178.17736191 173.93367702 C-178.19531338 161.30984021 -178.18896856 148.6861595 -178.1711921 136.06233899 C-178.15650572 125.1277967 -178.17111416 114.19352948 -178.19996227 103.25902262 C-178.22943904 92.0013982 -178.23979743 80.74389712 -178.23078007 69.48622447 C-178.22586446 63.17796336 -178.22799238 56.86991582 -178.24856758 50.56168175 C-178.26700106 44.62628387 -178.26087206 38.69139441 -178.23636818 32.75602341 C-178.23138432 30.58655739 -178.23478642 28.41705212 -178.24751663 26.24761772 C-178.33422969 10.1912498 -177.28398708 -3.76175624 -165.59765625 -15.9921875 C-164.94023437 -16.68957031 -164.2828125 -17.38695313 -163.60546875 -18.10546875 C-127.76448461 -52.96181047 -36.8627234 -22.23291193 0 0 Z M-142.91015625 8.9453125 C-145.85690876 14.2931226 -145.74313041 19.45715644 -145.73136902 25.45173645 C-145.73363458 26.29974294 -145.73590013 27.14774943 -145.73823434 28.02145308 C-145.74456219 30.86172803 -145.74374575 33.70195511 -145.74291992 36.54223633 C-145.74591218 38.57922935 -145.74931486 40.6162218 -145.75309753 42.6532135 C-145.76193519 48.18633899 -145.76427556 53.71944902 -145.76491332 59.25258088 C-145.76586292 63.87230457 -145.76954183 68.49202466 -145.77308542 73.11174697 C-145.78122917 84.01208121 -145.78366973 94.9124072 -145.78295898 105.81274414 C-145.78235827 117.05473419 -145.79290895 128.29667624 -145.80870265 139.53865415 C-145.82178135 149.19230558 -145.82714274 158.84594132 -145.82650357 168.49960154 C-145.82624867 174.26443365 -145.82909548 180.02922312 -145.83968163 185.7940464 C-145.84936805 191.21703031 -145.849438 196.63993085 -145.84216499 202.06291771 C-145.84111982 204.05107113 -145.84347806 206.03922976 -145.84952545 208.02737427 C-145.85725784 210.74599308 -145.85259227 213.46432487 -145.84489441 216.18293762 C-145.85003797 216.96554154 -145.85518154 217.74814545 -145.86048096 218.55446464 C-145.82129171 224.83824308 -145.40425378 230.81059929 -141.28515625 235.8203125 C-136.57121236 239.65724358 -133.38429219 241.36119796 -127.2421875 241.59765625 C-125.99348877 241.65719482 -124.74479004 241.7167334 -123.45825195 241.77807617 C-122.79894684 241.8046933 -122.13964172 241.83131042 -121.46035767 241.85873413 C-81.84362438 243.53171715 -43.25695518 252.85039089 -7.66015625 270.51171875 C-4.66301293 272.05951717 -4.66301293 272.05951717 -1.59765625 273.0078125 C-1.59765625 195.1278125 -1.59765625 117.2478125 -1.59765625 37.0078125 C-6.54765625 34.3678125 -11.49765625 31.7278125 -16.59765625 29.0078125 C-18.139375 28.13253906 -19.68109375 27.25726563 -21.26953125 26.35546875 C-52.17657292 8.83515345 -89.61287381 2.08367088 -124.84765625 1.5703125 C-125.74629395 1.54799561 -126.64493164 1.52567871 -127.57080078 1.50268555 C-134.52677623 1.5273995 -138.49506734 3.33695632 -142.91015625 8.9453125 Z M43.40234375 30.0078125 C39.11234375 32.3178125 34.82234375 34.6278125 30.40234375 37.0078125 C30.40234375 114.8878125 30.40234375 192.7678125 30.40234375 273.0078125 C33.53136307 271.75620477 36.55511051 270.50820803 39.59765625 269.08984375 C74.22465137 253.10433997 111.12747169 242.90614635 149.43359375 241.84375 C160.90790993 241.80141183 160.90790993 241.80141183 170.40234375 236.0078125 C174.93504521 230.30538163 174.55049491 223.44090524 174.54278564 216.45036316 C174.54575677 215.60220781 174.54872789 214.75405246 174.55178905 213.88019544 C174.56044308 211.04536435 174.56198149 208.21057566 174.56347656 205.37573242 C174.56810701 203.34021414 174.57313197 201.30469671 174.57852173 199.2691803 C174.59162445 193.74431444 174.59808634 188.21946071 174.60253239 182.69458175 C174.60546607 179.24143228 174.60957141 175.78828612 174.61403656 172.33513832 C174.62770484 161.52667449 174.63737522 150.71821822 174.64123845 139.90974635 C174.64572005 127.44060699 174.66327554 114.9715772 174.69223905 102.50247115 C174.71386237 92.85812569 174.72394305 83.21381105 174.72527957 73.56944162 C174.72632697 67.81183266 174.73222128 62.05432679 174.75009918 56.29674339 C174.76659141 50.88028136 174.7687297 45.46399981 174.75996017 40.04752159 C174.75919047 38.06300879 174.76352373 36.07848624 174.77341843 34.09399796 C174.78616381 31.37785603 174.78024714 28.66235092 174.76983643 25.94621277 C174.77789283 25.16720381 174.78594923 24.38819486 174.79424977 23.58557957 C174.74153853 17.67629691 174.02118109 10.95333317 169.95041013 6.37475938 C143.35992143 -16.19356563 68.51623929 15.8338333 43.40234375 30.0078125 Z " fill="#000000" transform="translate(241.59765625,114.9921875)"/>
</svg>
