<?xml version="1.0" encoding="UTF-8"?>
<svg version="1.1" xmlns="http://www.w3.org/2000/svg" width="512" height="512">
<path d="M0 0 C0.86512711 -0.00960754 1.73025421 -0.01921509 2.62159729 -0.02911377 C3.55076462 -0.03336365 4.47993195 -0.03761353 5.43725586 -0.04199219 C6.40432968 -0.04769226 7.3714035 -0.05339233 8.36778259 -0.05926514 C10.4162385 -0.06870707 12.46470955 -0.07524591 14.51318359 -0.07910156 C17.61640751 -0.08875614 20.71895436 -0.11976622 23.82202148 -0.15136719 C25.81876237 -0.157903 27.81550797 -0.1631512 29.81225586 -0.16699219 C31.18475243 -0.18551239 31.18475243 -0.18551239 32.5849762 -0.20440674 C41.49854917 -0.17425486 50.58832078 1.29959705 57.58959961 7.16113281 C62.20175406 11.95689601 65.66286433 17.22302741 68.96459961 22.97363281 C69.63942383 24.11735352 69.63942383 24.11735352 70.32788086 25.28417969 C73.58959961 30.8905686 73.58959961 30.8905686 73.58959961 33.16113281 C109.22959961 33.16113281 144.86959961 33.16113281 181.58959961 33.16113281 C182.24959961 31.51113281 182.90959961 29.86113281 183.58959961 28.16113281 C188.88164835 17.6760233 194.38613897 6.8851001 205.77709961 2.28613281 C212.18657596 0.39481192 217.9189493 -0.02415622 224.57006836 -0.07714844 C225.53809891 -0.08522018 226.50612946 -0.09329193 227.50349426 -0.10160828 C229.55016304 -0.11541437 231.59685451 -0.126152 233.64355469 -0.1340332 C235.72370208 -0.14554006 237.80382025 -0.16597123 239.88378906 -0.19555664 C242.90441765 -0.23848578 245.92417157 -0.25443779 248.94506836 -0.26464844 C249.8620903 -0.28215652 250.77911224 -0.29966461 251.72392273 -0.31770325 C261.96127908 -0.2838246 269.93439612 3.53703837 277.58959961 10.16113281 C278.50612305 10.91910156 278.50612305 10.91910156 279.44116211 11.69238281 C333.83316059 60.93616744 349.72076079 176.90712676 353.58959961 246.16113281 C353.80635637 251.4336121 353.9222144 256.69633808 353.96459961 261.97363281 C353.97861816 263.15376953 353.99263672 264.33390625 354.00708008 265.54980469 C353.9316616 278.93948472 350.07020406 288.3584292 341.08959961 298.22363281 C329.54938484 309.21535829 314.10631823 314.83094108 298.28515625 314.56396484 C282.97367258 313.90109763 273.70578769 306.00352471 263.58959961 295.16113281 C261.82077054 293.20397329 260.083385 291.22682118 258.36694336 289.22363281 C256.30983721 286.83648545 254.20275189 284.49878525 252.08959961 282.16113281 C248.82569113 278.54436936 245.60169012 274.89723673 242.40209961 271.22363281 C240.31748796 268.85148853 238.20531317 266.50557216 236.08959961 264.16113281 C232.82569113 260.54436936 229.60169012 256.89723673 226.40209961 253.22363281 C223.63118139 250.07051898 220.8131585 246.96028741 217.99584961 243.84863281 C215.58959961 241.16113281 215.58959961 241.16113281 214.36630344 239.18897915 C211.81705012 235.48477619 209.85645166 233.46756469 205.40517998 232.39087105 C201.30105184 232.06735173 197.25980103 231.99802596 193.14599609 232.01489258 C191.57159146 231.99257048 189.99723048 231.96696575 188.42292786 231.93833923 C184.15778961 231.87209945 179.89397015 231.85730591 175.628371 231.85600781 C172.05779091 231.85136503 168.48750374 231.82437689 164.9170261 231.79836982 C156.48341374 231.73847086 148.05049241 231.72331994 139.61669922 231.73364258 C130.94425249 231.7432699 122.27542471 231.66781712 113.60383171 231.55161053 C106.1375316 231.45517825 98.67240049 231.41737435 91.20548493 231.42444271 C86.75496143 231.42776952 82.30751014 231.40857554 77.85760307 231.33065987 C57.12532825 230.05621991 57.12532825 230.05621991 39.29651737 238.43900204 C37.13993749 240.97459542 35.29929092 243.56078606 33.62156868 246.43418694 C32.26692082 248.70111877 30.58730627 250.56035018 28.77709961 252.47363281 C28.2653418 253.06789063 27.75358398 253.66214844 27.22631836 254.27441406 C25.21086189 256.59772069 23.15111498 258.87861746 21.08959961 261.16113281 C18.3997653 264.14176002 15.72649597 267.13358514 13.08959961 270.16113281 C9.69706868 274.05626092 6.2376576 277.88896044 2.77709961 281.72363281 C0.86405812 283.85530762 -1.02927651 286.00132391 -2.91040039 288.16113281 C-4.07687632 289.49463301 -5.24355531 290.82795561 -6.41040039 292.16113281 C-7.12067383 292.97710937 -7.83094727 293.79308594 -8.56274414 294.63378906 C-16.07609402 303.14891893 -22.39147407 309.67555408 -33.41040039 313.16113281 C-34.31918945 313.44923828 -34.31918945 313.44923828 -35.24633789 313.74316406 C-49.2825 316.45411956 -63.62774675 313.04721675 -75.81274414 305.92285156 C-85.88953743 299.08881582 -95.06542115 289.96722426 -97.97192383 277.81298828 C-109.30658963 209.26224222 -80.59397128 113.30061524 -50.41040039 52.16113281 C-49.98259277 51.28779297 -49.55478516 50.41445312 -49.11401367 49.51464844 C-39.67871841 30.41981252 -28.92336152 10.04134442 -8.41040039 1.16113281 C-5.54967069 0.313678 -2.9789722 0.02685704 0 0 Z M-11.41040039 18.16113281 C-11.95170593 18.56303833 -12.49301147 18.96494385 -13.05072021 19.37902832 C-33.78302323 35.61711046 -44.00177507 67.30963964 -52.41040039 91.16113281 C-52.78471191 92.20076172 -53.15902344 93.24039063 -53.54467773 94.31152344 C-72.46031011 147.1016209 -84.85378054 205.32300113 -85.84790039 261.47363281 C-85.88246338 262.58915527 -85.91702637 263.70467773 -85.95263672 264.85400391 C-85.9995916 274.13425034 -83.47380036 281.00511236 -77.22290039 287.91113281 C-67.03575824 297.26218123 -54.76853132 302.09402973 -40.97680664 301.57910156 C-28.70324719 300.14068879 -22.0336803 290.98572098 -14.41040039 282.16113281 C-13.3875293 281.00291016 -13.3875293 281.00291016 -12.34399414 279.82128906 C-11.25051871 278.58066381 -10.16291088 277.33483308 -9.08227539 276.08300781 C-7.05281966 273.75008207 -4.98275339 271.45602036 -2.91040039 269.16113281 C-0.22056608 266.18050561 2.45270325 263.18868049 5.08959961 260.16113281 C8.48213054 256.26600471 11.94154161 252.43330519 15.40209961 248.59863281 C17.3151411 246.46695801 19.20847573 244.32094171 21.08959961 242.16113281 C24.40942831 238.34947763 27.79081099 234.59561577 31.18334961 230.84863281 C33.53726164 228.3913985 33.53726164 228.3913985 34.77026367 226.18451595 C37.36559357 222.31953229 39.3609865 220.43152659 43.98571777 219.41371346 C48.40105229 219.01809506 52.81758817 219.09027357 57.24584961 219.1418457 C58.94980965 219.13263555 60.65375412 219.12000887 62.35766602 219.10423279 C66.97377465 219.0720923 71.58841951 219.09025417 76.20449829 219.11946034 C81.04057295 219.14347848 85.87654453 219.12757851 90.71264648 219.11778259 C98.83332331 219.1078099 106.95341268 219.13084015 115.07397461 219.1730957 C124.45549771 219.22147368 133.83583917 219.21616921 143.2173996 219.18240172 C152.25119855 219.15125755 161.28455776 219.15965339 170.31835938 219.18548393 C174.15883021 219.19568483 177.99890403 219.19181357 181.83935547 219.17650032 C186.36412502 219.16014212 190.88748245 219.17837519 195.41204834 219.223032 C197.07001318 219.23386236 198.72810491 219.23286787 200.38604736 219.21902847 C214.46823621 219.1137496 214.46823621 219.1137496 218.93139648 223.49607849 C219.8526133 224.69148188 220.74043185 225.91351757 221.58959961 227.16113281 C222.63966153 228.35964541 223.70104568 229.54840073 224.77709961 230.72363281 C226.9580891 233.24540191 229.11899382 235.78386044 231.27709961 238.32519531 C236.87083281 244.90065928 242.55016137 251.36223996 248.43334961 257.68066406 C251.649294 261.13482656 254.79477916 264.63548874 257.88256836 268.20410156 C259.92593391 270.54672432 262.0064082 272.85386703 264.08959961 275.16113281 C266.81815525 278.18566737 269.53307374 281.219814 272.21459961 284.28613281 C272.77791992 284.92421875 273.34124023 285.56230469 273.92163086 286.21972656 C275.05525877 287.53919511 276.15620419 288.88730623 277.22631836 290.25878906 C282.41546381 296.73010099 287.76598711 300.56215676 296.14428711 301.60253906 C309.93868919 302.03978494 320.19173551 298.15078225 330.58959961 289.16113281 C336.85559114 283.14715557 340.6412417 277.4814443 340.98803711 268.66113281 C341.0013656 266.49449306 340.9921093 264.32763892 340.96459961 262.16113281 C340.95372314 260.97471191 340.94284668 259.78829102 340.93164062 258.56591797 C339.6763985 185.98923913 322.3538245 83.06113461 274.58959961 26.16113281 C274.14487305 25.5565625 273.70014648 24.95199219 273.24194336 24.32910156 C269.51549962 19.33945655 264.10906224 15.92086413 258.58959961 13.16113281 C257.21276603 13.05700996 255.83114781 13.01251849 254.45043945 13 C253.59549896 12.99039246 252.74055847 12.98078491 251.85971069 12.97088623 C250.93268341 12.96663635 250.00565613 12.96238647 249.05053711 12.95800781 C248.09571442 12.95230774 247.14089172 12.94660767 246.15713501 12.94073486 C244.13121654 12.931275 242.10528261 12.92474698 240.0793457 12.92089844 C236.99784911 12.91123706 233.91703206 12.88024135 230.83569336 12.84863281 C228.86564523 12.84209826 226.89559233 12.83684957 224.92553711 12.83300781 C224.01065521 12.82066101 223.09577332 12.80831421 222.15316772 12.79559326 C215.71271308 12.81771189 209.46294293 13.40024912 204.59350586 18.07910156 C202.89333259 20.75606815 201.21930486 23.44038279 199.58959961 26.16113281 C198.8369067 27.30906473 198.08293703 28.45616021 197.32788086 29.60253906 C191.85201472 38.25395408 189.09382776 46.54848803 187.26098633 56.62304688 C186.10138806 62.84731147 184.68073009 67.5739242 179.62475586 71.80566406 C178.9737793 72.19109375 178.32280273 72.57652344 177.65209961 72.97363281 C177.00370117 73.37195313 176.35530273 73.77027344 175.68725586 74.18066406 C170.87731003 76.42888828 165.85293756 76.31432957 160.63745117 76.32226562 C159.45835175 76.32971298 159.45835175 76.32971298 158.25543213 76.33731079 C155.66368726 76.35187435 153.07200362 76.35872509 150.48022461 76.36425781 C148.67047119 76.37001452 146.86071777 76.37577218 145.05096436 76.38153076 C141.25817584 76.39202458 137.46540841 76.39787767 133.67260742 76.40136719 C128.82966093 76.40684517 123.98699652 76.43086519 119.14413834 76.45933914 C115.40532638 76.47802998 111.66658146 76.48317457 107.92772675 76.48470306 C106.14327199 76.48771613 104.35881804 76.49569881 102.57440948 76.50888824 C80.1692691 76.66266124 80.1692691 76.66266124 72.86303711 69.84082031 C69.40682256 65.28200971 67.90103655 59.55075646 67.17163086 53.95410156 C65.9384764 44.5631561 62.50679427 37.62666171 57.77709961 29.47363281 C57.1720459 28.42151611 56.56699219 27.36939941 55.94360352 26.28540039 C50.97506164 18.01864817 50.97506164 18.01864817 42.68743896 13.58847046 C40.4877594 13.14038758 38.46709656 13.00680479 36.22338867 12.96826172 C35.36859924 12.95219879 34.51380981 12.93613586 33.63311768 12.91958618 C29.73157856 12.87479559 25.83020329 12.83407446 21.9284668 12.81103516 C19.87626799 12.7944904 17.82412645 12.76721999 15.7722168 12.72900391 C12.79958477 12.6739906 9.82829843 12.65232418 6.85522461 12.63769531 C5.94661682 12.61502594 5.03800903 12.59235657 4.10186768 12.56900024 C-2.383373 12.590309 -6.30242406 14.21798557 -11.41040039 18.16113281 Z M77.58959961 45.16113281 C78.29598676 54.70975547 78.29598676 54.70975547 82.58959961 62.16113281 C86.22579238 64.74930907 90.20236655 64.45688192 94.49169922 64.45166016 C95.28404465 64.45837738 96.07639008 64.4650946 96.89274597 64.47201538 C99.50920906 64.49099681 102.12541572 64.49491945 104.74194336 64.49707031 C106.56270961 64.50349751 108.38347482 64.51022581 110.20423889 64.51724243 C114.01980993 64.5292151 117.83529041 64.5329232 121.65087891 64.53173828 C126.53808343 64.53153495 131.42470738 64.55885181 136.31177425 64.5932827 C140.0718909 64.61552721 143.83186721 64.6195766 147.59204292 64.61851883 C149.39376389 64.62087791 151.19548855 64.62971875 152.9971447 64.64518356 C155.51787815 64.66479692 158.03735139 64.65902473 160.55810547 64.64697266 C161.67185547 64.66383118 161.67185547 64.66383118 162.80810547 64.68103027 C167.68393376 64.62184061 170.16254551 63.62246074 173.58959961 60.16113281 C174.75335247 58.32283165 174.75335247 58.32283165 175.33959961 56.34863281 C175.56131836 55.7234375 175.78303711 55.09824219 176.01147461 54.45410156 C176.77962732 51.40744183 177.14525303 48.27155886 177.58959961 45.16113281 C144.58959961 45.16113281 111.58959961 45.16113281 77.58959961 45.16113281 Z " fill="#000000" transform="translate(128.410400390625,98.8388671875)"/>
<path d="M0 0 C4.98517151 3.42194373 8.27026732 8.68395204 10.04296875 14.40234375 C10.18007093 17.04841584 10.23359847 19.57703388 10.16796875 22.21484375 C10.15894531 22.90771484 10.14992188 23.60058594 10.140625 24.31445312 C10.11723032 26.0105677 10.08136516 27.70650246 10.04296875 29.40234375 C10.87699219 29.36753906 11.71101563 29.33273438 12.5703125 29.296875 C21.39947949 29.08448954 27.92181011 29.68082389 35.35546875 34.58984375 C40.49225266 39.96554784 42.28497905 44.41847622 42.60546875 51.90234375 C42.35514357 59.1200532 40.29123913 63.16118119 35.2578125 68.18359375 C31.34002148 71.71043748 28.43575865 73.5406354 23.03125 73.5 C21.89526367 73.49516602 21.89526367 73.49516602 20.73632812 73.49023438 C19.55780273 73.47766602 19.55780273 73.47766602 18.35546875 73.46484375 C17.55818359 73.46033203 16.76089844 73.45582031 15.93945312 73.45117188 C13.97392618 73.43940225 12.0084379 73.42146723 10.04296875 73.40234375 C10.09517578 74.88734375 10.09517578 74.88734375 10.1484375 76.40234375 C10.5434663 92.2395899 10.5434663 92.2395899 4.73046875 99.15234375 C-1.46810519 104.34184752 -5.69075323 106.75298781 -13.80859375 106.6171875 C-20.28221038 105.96982584 -25.48223812 103.08053657 -29.95703125 98.40234375 C-35.31371376 90.8996611 -34.34412323 82.16567604 -33.95703125 73.40234375 C-35.09140625 73.44875 -36.22578125 73.49515625 -37.39453125 73.54296875 C-53.68550929 74.01983073 -53.68550929 74.01983073 -58.95703125 69.40234375 C-64.5570089 64.02990469 -66.62020868 58.09312578 -66.95703125 50.40234375 C-66.38931723 43.80550681 -63.4000359 38.77748716 -58.70703125 34.21484375 C-50.60680514 28.87605836 -43.44023687 29.04272781 -33.95703125 29.40234375 C-34.0034375 28.34015625 -34.04984375 27.27796875 -34.09765625 26.18359375 C-34.58900414 10.38199499 -34.58900414 10.38199499 -28.34375 3.66796875 C-20.32663475 -3.79808093 -9.76558357 -4.85686546 0 0 Z M-18.640625 12.23046875 C-22.01211164 16.84707441 -21.69979165 20.94560946 -21.70703125 26.52734375 C-21.74018926 28.50917255 -21.77650616 30.49095172 -21.81640625 32.47265625 C-21.82124023 33.34680176 -21.82607422 34.22094727 -21.83105469 35.12158203 C-21.95703125 37.40234375 -21.95703125 37.40234375 -22.95703125 40.40234375 C-25.39571755 41.6216869 -27.064621 41.5588673 -29.7890625 41.61328125 C-31.23442383 41.65582031 -31.23442383 41.65582031 -32.70898438 41.69921875 C-34.73745244 41.75099841 -36.76612447 41.79535835 -38.79492188 41.83203125 C-45.88056743 41.98875935 -45.88056743 41.98875935 -51.95703125 45.40234375 C-54.0580472 48.07636405 -53.95550101 49.4451906 -53.83203125 52.90234375 C-52.87565066 56.72786612 -52.08628691 58.07775383 -48.95703125 60.40234375 C-45.96525792 61.36446995 -43.17369076 61.54829388 -40.04296875 61.61328125 C-38.65464844 61.65582031 -38.65464844 61.65582031 -37.23828125 61.69921875 C-35.29316773 61.75150675 -33.34782102 61.79571567 -31.40234375 61.83203125 C-30.479375 61.86296875 -29.55640625 61.89390625 -28.60546875 61.92578125 C-27.76161621 61.94560059 -26.91776367 61.96541992 -26.04833984 61.98583984 C-25.35820801 62.12328613 -24.66807617 62.26073242 -23.95703125 62.40234375 C-21.79555973 65.64455102 -21.7091476 66.58528404 -21.68359375 70.33203125 C-21.66296875 71.29238281 -21.64234375 72.25273437 -21.62109375 73.2421875 C-21.59515372 75.25772801 -21.57686374 77.2733822 -21.56640625 79.2890625 C-21.43341124 85.18650963 -21.43341124 85.18650963 -19.1328125 90.53515625 C-16.0861804 93.14968074 -13.93485771 93.40234375 -9.95703125 93.40234375 C-6.38315523 91.81395441 -5.14613553 90.68600017 -2.95703125 87.40234375 C-2.62290549 85.03353079 -2.62290549 85.03353079 -2.61328125 82.40234375 C-2.56880859 80.94828125 -2.56880859 80.94828125 -2.5234375 79.46484375 C-2.50152344 78.45421875 -2.47960937 77.44359375 -2.45703125 76.40234375 C-2.4136594 74.40213587 -2.3619436 72.40208669 -2.30078125 70.40234375 C-2.28208984 69.51546875 -2.26339844 68.62859375 -2.24414062 67.71484375 C-1.95703125 65.40234375 -1.95703125 65.40234375 0.04296875 62.40234375 C2.10253906 62.01757812 2.10253906 62.01757812 4.62109375 61.99609375 C5.53503906 61.97417969 6.44898438 61.95226562 7.390625 61.9296875 C8.34839844 61.92066406 9.30617187 61.91164062 10.29296875 61.90234375 C19.10513831 61.93003739 19.10513831 61.93003739 27.04296875 58.40234375 C29.13934576 55.25777824 29.4085332 53.24139699 29.69921875 49.53515625 C28.84360676 46.75441728 27.34476139 45.17289753 25.06201172 43.41064453 C20.94098026 41.35262036 16.36892803 41.74192092 11.85546875 41.77734375 C9.88276953 41.77734375 7.91001985 41.764883 5.9375 41.73828125 C4.63582886 41.74674072 4.63582886 41.74674072 3.30786133 41.75537109 C1.04296875 41.40234375 1.04296875 41.40234375 -0.73974609 40.18945312 C-2.34256172 37.83634234 -2.32577325 36.30782622 -2.328125 33.47265625 C-2.35422852 32.03212891 -2.35422852 32.03212891 -2.38085938 30.5625 C-2.38993871 28.54688872 -2.39517722 26.53125631 -2.39648438 24.515625 C-2.4794188 18.59459678 -2.4794188 18.59459678 -4.8671875 13.26953125 C-7.58430278 10.84190302 -8.58941796 10.44396035 -12.26953125 10.02734375 C-15.98489318 10.10930158 -15.98489318 10.10930158 -18.640625 12.23046875 Z " fill="#000000" transform="translate(160.95703125,181.59765625)"/>
<path d="M0 0 C6.00102691 4.32578804 9.23956321 9.86450178 11 17 C12.16166764 25.49095211 10.40091584 31.91875 5.6796875 38.97265625 C1.60079754 44.22171956 -3.24185617 46.90005546 -9.5625 48.75 C-18.28031572 49.64413495 -25.37702496 47.81398481 -32.875 43.25 C-38.57867411 37.21081565 -41.77637488 30.71964254 -42.1015625 22.40234375 C-41.80216924 14.21508964 -38.94725546 7.85936111 -33.0703125 2.11328125 C-23.18118041 -5.83265562 -10.88745951 -6.16651068 0 0 Z M-26.8125 14.75 C-28.55937071 18.05986028 -29.1142614 21.30078709 -29 25 C-27.37970278 29.68085865 -25.25123377 32.44925974 -21 35 C-16.81793223 36.26153284 -13.87454285 36.3195445 -9.75 34.8125 C-5.92202981 32.28951964 -3.46812268 30.40436803 -2 26 C-1.61561182 21.31046415 -1.54104341 18.93556536 -3.625 14.6875 C-7.19364703 10.64929414 -10.17079706 9.22865037 -15.5 8.5625 C-20.4738123 9.18422654 -23.26753618 11.32727631 -26.8125 14.75 Z " fill="#000000" transform="translate(411,211)"/>
<path d="M0 0 C1.14698034 0.71593373 2.27550738 1.46308134 3.375 2.25 C4.261875 2.806875 5.14875 3.36375 6.0625 3.9375 C11.73660378 9.61160378 14.09925499 16.11382484 14.625 24 C14.4381068 32.30117315 11.38481854 38.33372955 5.671875 44.296875 C-0.32583357 49.39696732 -7.1269245 50.98263257 -14.89453125 50.62109375 C-23.22888454 49.48838479 -28.70884999 46.20205587 -33.99609375 39.67578125 C-38.13539745 33.51149444 -39.74753241 26.614306 -38.625 19.25 C-36.06611024 10.47103974 -32.34219692 5.00553594 -24.52734375 0.265625 C-17.87359054 -3.28668677 -6.8026869 -3.32953006 0 0 Z M-22.9375 15.375 C-25.2412778 19.29995477 -25.95161762 22.70845979 -25.625 27.25 C-24.40646532 30.97728257 -22.38116793 33.58025126 -19.4375 36.1875 C-15.41465592 37.7072411 -11.86951588 37.91624676 -7.625 37.25 C-3.91589903 35.46413657 -2.08478699 33.88776905 0.3125 30.5625 C1.72830783 26.14851087 1.67139272 22.69591124 0.375 18.25 C-1.56297921 14.6133936 -3.89490208 12.57779906 -7.6875 10.875 C-14.13096869 9.50404921 -18.14859159 10.97438146 -22.9375 15.375 Z " fill="#000000" transform="translate(356.625,178.75)"/>
<path d="M0 0 C6.55891563 3.41208295 11.42250535 8.53112478 14.125 15.4375 C16.5915552 23.95832704 15.0531712 31.65088846 11.125 39.4375 C7.13699872 45.03723237 1.77835465 48.72634979 -4.875 50.4375 C-13.57114472 51.59407634 -20.69596818 50.63567418 -27.875 45.4375 C-33.92717871 40.1747359 -37.07018925 34.33188859 -38.15234375 26.40625 C-38.51506614 19.09376668 -36.26314156 12.74288383 -31.625 7.125 C-23.42048943 -1.60098369 -11.32298866 -4.56824025 0 0 Z M-20.625 14.25 C-23.67006827 17.21048304 -24.84364254 19.28559419 -24.90625 23.58203125 C-24.56922467 28.6626881 -23.70538209 31.82599689 -19.875 35.4375 C-15.61447455 37.96523313 -11.71821656 38.11016897 -6.875 37.4375 C-3.16589903 35.65163657 -1.33478699 34.07526905 1.0625 30.75 C2.4695107 26.36343723 2.34284612 22.86751743 1.125 18.4375 C-1.45448234 14.396311 -3.96375421 11.94716554 -8.6875 10.6875 C-13.5446043 10.30655064 -16.59982929 11.59704658 -20.625 14.25 Z " fill="#000000" transform="translate(355.875,239.5625)"/>
</svg>
