<?xml version="1.0" encoding="UTF-8"?>
<svg version="1.1" xmlns="http://www.w3.org/2000/svg" width="512" height="512">
<path d="M0 0 C3.0625 2.4375 3.0625 2.4375 5 5 C5.33 5.33 5.66 5.66 6 6 C6.10166167 8.64251445 6.13729953 11.25902406 6.13142776 13.9021492 C6.1334804 14.74430353 6.13553303 15.58645786 6.13764787 16.45413202 C6.14336098 19.31296181 6.14185535 22.17174407 6.14044189 25.03057861 C6.14302307 27.08615416 6.14603553 29.1417292 6.1494453 31.19730353 C6.15754774 36.87477895 6.15930666 42.55224175 6.16004276 48.22972226 C6.16188772 54.34165365 6.16943222 60.4535784 6.17617798 66.56550598 C6.19049512 80.64156255 6.19629096 94.71761497 6.20086992 108.79367708 C6.20320371 115.74576484 6.20680613 122.69785176 6.2105653 129.64993888 C6.223403 153.43583601 6.23412184 177.22173268 6.2375679 201.00763321 C6.23778954 202.50161814 6.23801132 203.99560307 6.23823325 205.48958801 C6.2384539 206.98723816 6.23867438 208.48488831 6.2388947 209.98253846 C6.23933726 212.98721965 6.23978437 215.99190084 6.24023438 218.99658203 C6.24039846 220.11406676 6.24039846 220.11406676 6.24056586 221.25412695 C6.24419716 245.41491173 6.26011881 269.57566653 6.28342474 293.73643983 C6.30800536 319.26522262 6.32173993 344.79398826 6.32293582 370.32278323 C6.32310728 373.12376579 6.32332271 375.92474834 6.32357025 378.7257309 C6.32362602 379.41543937 6.32368179 380.10514784 6.32373925 380.81575658 C6.32489127 391.92902326 6.33592618 403.04225924 6.35045731 414.15551554 C6.36480403 425.3205973 6.36781658 436.48564013 6.36001733 447.65073213 C6.35609828 453.70289358 6.35710134 459.75495145 6.37107468 465.8071003 C6.38373872 471.34261464 6.38268247 476.87794676 6.37048396 482.41346058 C6.36851388 484.42091051 6.37166527 486.42837303 6.38032833 488.43580523 C6.39132662 491.15558984 6.38400021 493.87472063 6.3719368 496.59448624 C6.38332959 497.77520743 6.38332959 497.77520743 6.39495254 498.97978157 C6.35143464 503.49601922 5.79273078 506.40575813 3 510 C-1.06247444 512.72345232 -5.27676856 512.64305531 -10 512 C-12.91205472 510.96644145 -15.43323492 509.48548618 -18.0625 507.875 C-18.82433594 507.43051514 -19.58617187 506.98603027 -20.37109375 506.52807617 C-22.03760195 505.55322877 -23.69905337 504.56969717 -25.35595703 503.57861328 C-28.08887866 501.94693542 -30.83672762 500.34344065 -33.58984375 498.74609375 C-37.61956671 496.40685255 -41.64390498 494.05876744 -45.6640625 491.703125 C-52.05281992 487.96365411 -58.46116076 484.25874966 -64.875 480.5625 C-65.95458984 479.94028564 -67.03417969 479.31807129 -68.14648438 478.67700195 C-70.3368252 477.41488483 -72.52725502 476.15292215 -74.71777344 474.89111328 C-80.14659942 471.76319852 -85.57319281 468.63141552 -91 465.5 C-93.16665583 464.24998121 -95.3333225 462.99998122 -97.5 461.75 C-110.5 454.25 -123.5 446.75 -136.5 439.25 C-137.57266113 438.63116943 -138.64532227 438.01233887 -139.75048828 437.37475586 C-141.91557071 436.12564482 -144.08060982 434.87645871 -146.24560547 433.62719727 C-151.68615706 430.48797691 -157.12747216 427.35009437 -162.5703125 424.21484375 C-174.0544882 417.59777108 -185.52196894 410.95366023 -196.96582031 404.26708984 C-207.52620282 398.10080946 -218.12126766 391.9950405 -228.71777344 385.89111328 C-234.14659942 382.76319852 -239.57319281 379.63141552 -245 376.5 C-247.16665583 375.24998121 -249.3333225 373.99998122 -251.5 372.75 C-273.16666667 360.25 -294.83333333 347.75 -316.5 335.25 C-317.57266113 334.63116943 -318.64532227 334.01233887 -319.75048828 333.37475586 C-321.91557071 332.12564482 -324.08060982 330.87645871 -326.24560547 329.62719727 C-331.68615706 326.48797691 -337.12747216 323.35009437 -342.5703125 320.21484375 C-354.05306897 313.59858883 -365.51960901 306.95609989 -376.96142578 300.26928711 C-384.29312816 295.98754886 -391.64312335 291.73831365 -399 287.5 C-402.23734661 285.63251593 -405.47444076 283.76459513 -408.71142578 281.89648438 C-410.95123239 280.60481268 -413.19182424 279.31450189 -415.43310547 278.02539062 C-418.77052018 276.10475373 -422.1043466 274.17802029 -425.4375 272.25 C-426.45650391 271.66541016 -427.47550781 271.08082031 -428.52539062 270.47851562 C-429.93401367 269.66157227 -429.93401367 269.66157227 -431.37109375 268.828125 C-432.19536865 268.3527832 -433.01964355 267.87744141 -433.86889648 267.38769531 C-437.20071509 265.21813901 -438.72896201 263.81311398 -440 260 C-440.35335899 254.52293569 -440.54354304 251.44106332 -437 247 C-433.95641477 244.78827041 -430.71302394 242.96955298 -427.4375 241.125 C-426.46586914 240.56474121 -425.49423828 240.00448242 -424.49316406 239.42724609 C-422.40775869 238.22626716 -420.31926862 237.03063168 -418.22802734 235.83984375 C-415.03632351 234.02070291 -411.85465339 232.18520874 -408.67578125 230.34375 C-403.22737481 227.18886163 -397.77203196 224.04621568 -392.31445312 220.90722656 C-386.87349443 217.7763508 -381.43692011 214.63788195 -376 211.5 C-369.47770002 207.73630409 -362.95486233 203.97355375 -356.4296875 200.21484375 C-345.93767906 194.16944841 -335.45518324 188.10889781 -325 182 C-313.45270484 175.25298806 -301.87097973 168.56660682 -290.28222656 161.89111328 C-284.85340058 158.76319852 -279.42680719 155.63141552 -274 152.5 C-271.83334417 151.24998121 -269.6666775 149.99998122 -267.5 148.75 C-266.4275 148.13125 -265.355 147.5125 -264.25 146.875 C-254.5 141.25 -254.5 141.25 -251.24951172 139.37475586 C-249.08442929 138.12564482 -246.91939018 136.87645871 -244.75439453 135.62719727 C-239.31384294 132.48797691 -233.87252784 129.35009437 -228.4296875 126.21484375 C-217.93767906 120.16944841 -207.45518324 114.10889781 -197 108 C-185.45270484 101.25298806 -173.87097973 94.56660682 -162.28222656 87.89111328 C-156.85340062 84.76319854 -151.42677993 81.63146269 -146 78.5 C-139.47766725 74.73636081 -132.95486238 70.97355378 -126.4296875 67.21484375 C-115.93767906 61.16944841 -105.45518324 55.10889781 -95 49 C-83.46007441 42.25729405 -71.88564479 35.57537475 -60.30419922 28.90429688 C-55.86353158 26.34502337 -51.42530747 23.78153314 -46.98779297 21.21679688 C-44.80495432 19.95728057 -42.62040753 18.70071953 -40.43408203 17.44726562 C-35.26992525 14.48462485 -30.13470177 11.48923435 -25.05078125 8.390625 C-24.11210205 7.82819092 -23.17342285 7.26575684 -22.20629883 6.6862793 C-20.46749555 5.64299733 -18.73842431 4.58322284 -17.0222168 3.50317383 C-11.46475299 0.20172722 -6.48205712 -1.2527419 0 0 Z M-23.4609375 35.5 C-24.85868408 36.32359009 -24.85868408 36.32359009 -26.28466797 37.16381836 C-27.30447754 37.7697583 -28.32428711 38.37569824 -29.375 39 C-31.57224472 40.29411031 -33.77018943 41.5870327 -35.96875 42.87890625 C-36.54213104 43.21620255 -37.11551208 43.55349884 -37.70626831 43.90101624 C-44.06384244 47.63573937 -50.46803248 51.28833839 -56.875 54.9375 C-59.24505356 56.28860358 -61.61479735 57.64024945 -63.984375 58.9921875 C-64.56962952 59.32607986 -65.15488403 59.65997223 -65.75787354 60.00398254 C-75.11943348 65.34804176 -84.44888677 70.74798094 -93.78222656 76.14111328 C-99.18670645 79.26324605 -104.59347412 82.38141204 -110 85.5 C-112.1666775 86.74998122 -114.33334417 87.99998121 -116.5 89.25 C-136 100.5 -136 100.5 -155.5 111.75 C-156.57233887 112.36866943 -157.64467773 112.98733887 -158.74951172 113.62475586 C-160.91776264 114.8756448 -163.08605697 116.12645852 -165.25439453 117.37719727 C-170.64717915 120.48798335 -176.03922093 123.60004238 -181.4296875 126.71484375 C-193.23629484 133.53502637 -205.06027 140.3232326 -216.90472412 147.07736206 C-224.96263212 151.67394223 -232.99417786 156.3132416 -241 161 C-249.59522672 166.0318069 -258.2231213 171.00389072 -266.875 175.9375 C-279.20025196 182.96603507 -291.49722067 190.04240434 -303.78222656 197.14111328 C-310.27125096 200.88978034 -316.7633695 204.63308667 -323.25488281 208.37744141 C-328.64748314 211.48818339 -334.03937822 214.60013327 -339.4296875 217.71484375 C-349.5829659 223.57993392 -359.74346549 229.43146406 -369.92919922 235.23999023 C-374.57744739 237.89072191 -379.22203548 240.54782857 -383.86572266 243.20654297 C-385.86959228 244.35317222 -387.8743864 245.49818829 -389.88037109 246.64111328 C-392.34123331 248.04506383 -394.7965229 249.45819589 -397.25 250.875 C-397.95326416 251.27372314 -398.65652832 251.67244629 -399.38110352 252.08325195 C-400.95501428 252.99897073 -402.48424016 253.99093702 -404 255 C-404 255.66 -404 256.32 -404 257 C-391.22683294 264.3851896 -378.44558224 271.75505345 -365.62805176 279.06298828 C-355.40926499 284.88928353 -345.22475459 290.77049319 -335.07324219 296.71337891 C-327.45094222 301.16916344 -319.79468689 305.56397146 -312.125 309.9375 C-299.79974804 316.96603507 -287.50277933 324.04240434 -275.21777344 331.14111328 C-269.81329359 334.26324603 -264.40655282 337.38145881 -259 340.5 C-252.52233115 344.23636915 -246.04510017 347.97348347 -239.5703125 351.71484375 C-227.76370516 358.53502637 -215.93973 365.3232326 -204.09527588 372.07736206 C-195.05528292 377.23416608 -186.05474679 382.45543769 -177.07324219 387.71337891 C-169.45094222 392.16916344 -161.79468689 396.56397146 -154.125 400.9375 C-141.79974804 407.96603507 -129.50277933 415.04240434 -117.21777344 422.14111328 C-111.81329355 425.26324605 -106.40652588 428.38141204 -101 431.5 C-98.8333225 432.74998122 -96.66665583 433.99998121 -94.5 435.25 C-93.4275 435.86875 -92.355 436.4875 -91.25 437.125 C-88 439 -84.75 440.875 -81.5 442.75 C-80.4267749 443.36915283 -79.3535498 443.98830566 -78.24780273 444.6262207 C-76.08840605 445.8720577 -73.92906331 447.11798818 -71.76977539 448.36401367 C-66.24232403 451.55348953 -60.71384879 454.74116885 -55.18359375 457.92578125 C-52.93487417 459.22131657 -50.68617595 460.51688896 -48.4375 461.8125 C-47.35919922 462.43326416 -46.28089844 463.05402832 -45.16992188 463.69360352 C-40.31758267 466.4911637 -35.47430694 469.30120151 -30.66015625 472.1640625 C-29.46531616 472.87405396 -29.46531616 472.87405396 -28.24633789 473.59838867 C-26.7938606 474.4642552 -25.34365882 475.33395536 -23.89624023 476.20825195 C-20.67367578 478.30446006 -20.67367578 478.30446006 -17 479 C-17 331.82 -17 184.64 -17 33 C-19.73870737 33 -21.10471752 34.10179331 -23.4609375 35.5 Z " fill="#000000" transform="translate(473,0)"/>
</svg>
